# xmcd
#
# Track frame offsets:
#	150
#	11339
#	22686
#	35125
#	46068
#	55673
#	70296
#	82139
#	95593
#	108028
#	120084
#	133276
#	143098
#	154916
#	165195
#	175692
#	186990
#	199936
#	212069
#	225921
#
# Disc length: 3186 seconds
#
# Revision: 5
# Processed by: cddbd v1.5.2PL0 Copyright (c) Steve Scherf et al.
# Submitted via: audiograbber 1.83.01
#
DISCID=fc0c7014
DTITLE=Johnny Tillotson - The Best Of Johnny Tillotson
DYEAR=1994
DGENRE=Pop
TTITLE0=Poetry In Motion
TTITLE1=Judy Judy Judy
TTITLE2=Jimmy's Girl
TTITLE3=Dreamy Eyes
TTITLE4=Why Do I Love You So
TTITLE5=Funny How Time Slips Away
TTITLE6=True True Happiness
TTITLE7=Earth Angel
TTITLE8=You Can Never Stop Me Loving You
TTITLE9=Out Of My Mind
TTITLE10=Send Me The Pillow That You Dream On
TTITLE11=Without You
TTITLE12=Pledging My Love
TTITLE13=Cutie Pie
TTITLE14=Well, I'm Your Man
TTITLE15=I Can't Help It If I'm Still In Love With You
TTITLE16=It Keeps Right On A Hurtin'
TTITLE17=Talk Back Trembling Lips
TTITLE18=I Fall To Pieces
TTITLE19=I'm So Lonesome I Could Cry
EXTD=
EXTT0=
EXTT1=
EXTT2=
EXTT3=
EXTT4=
EXTT5=
EXTT6=
EXTT7=
EXTT8=
EXTT9=
EXTT10=
EXTT11=
EXTT12=
EXTT13=
EXTT14=
EXTT15=
EXTT16=
EXTT17=
EXTT18=
EXTT19=
PLAYORDER=
